<svg width="28" height="38" viewBox="0 0 28 38" fill="none" xmlns="http://www.w3.org/2000/svg">
<mask id="path-1-inside-1_556_8436" fill="white">
<path fill-rule="evenodd" clip-rule="evenodd" d="M13.9363 25.373L13.9363 18.5451C10.9236 18.5451 8.48133 16.4288 8.48133 13.8181L0.601928 13.8181C0.601928 20.1997 6.57194 25.373 13.9363 25.373Z"/>
</mask>
<path fill-rule="evenodd" clip-rule="evenodd" d="M13.9363 25.373L13.9363 18.5451C10.9236 18.5451 8.48133 16.4288 8.48133 13.8181L0.601928 13.8181C0.601928 20.1997 6.57194 25.373 13.9363 25.373Z" fill="#3658A4"/>
<path d="M13.9363 25.373L13.9363 50.373L38.9363 50.373L38.9363 25.373L13.9363 25.373ZM13.9363 18.5451L38.9363 18.5451L38.9363 -6.45486L13.9363 -6.45486L13.9363 18.5451ZM8.48133 13.8181L33.4813 13.8181L33.4813 -11.1819L8.48133 -11.1819L8.48133 13.8181ZM0.601928 13.8181L0.601921 -11.1819L-24.3981 -11.1819L-24.3981 13.8181L0.601928 13.8181ZM38.9363 25.373L38.9363 18.5451L-11.0637 18.5452L-11.0637 25.3731L38.9363 25.373ZM-16.5187 13.8181C-16.5187 33.4776 0.598266 43.5451 13.9363 43.5451L13.9363 -6.45486C21.249 -6.45486 33.4813 -0.620059 33.4813 13.8181L-16.5187 13.8181ZM0.601935 38.8181L8.48134 38.8181L8.48133 -11.1819L0.601921 -11.1819L0.601935 38.8181ZM13.9363 0.373046C16.0641 0.373046 18.5954 1.1161 20.8795 3.09537C23.2147 5.11892 25.6019 8.84286 25.6019 13.8181L-24.3981 13.8181C-24.3981 37.2486 -3.75341 50.373 13.9363 50.373L13.9363 0.373046Z" fill="#3658A4" mask="url(#path-1-inside-1_556_8436)"/>
<path d="M15.1429 12.6667V0.00252175C15.1429 0.00252175 22.6118 -0.22501 25.7998 3.64249C28.3157 6.69471 27.9858 12.6667 27.9858 12.6667H15.1429Z" fill="#764B96"/>
<ellipse cx="7.42857" cy="6.33333" rx="6.42857" ry="6.33333" fill="#E84E41"/>
<rect x="15.1429" y="13.8184" width="12.8571" height="11.5152" fill="#1C9E76"/>
<path d="M28 26.4849H1C1 26.4849 2.25844 32.0402 5.07547 34.5152C8.05093 37.1293 10.6792 38 14.9245 38C19.1698 38 21.4019 36.7579 24.0943 34.5152C27.0433 32.0587 28 26.4849 28 26.4849Z" fill="#5EC1D6"/>
</svg>