<svg width="150" height="44" viewBox="0 0 150 44" fill="none" xmlns="http://www.w3.org/2000/svg">
<mask id="path-1-inside-1_45_4831" fill="white">
<path fill-rule="evenodd" clip-rule="evenodd" d="M13.9359 30.3731L13.9359 23.5451C10.9232 23.5451 8.48097 21.4288 8.48097 18.8181L0.601562 18.8181C0.601562 25.1997 6.57157 30.3731 13.9359 30.3731Z"/>
</mask>
<path fill-rule="evenodd" clip-rule="evenodd" d="M13.9359 30.3731L13.9359 23.5451C10.9232 23.5451 8.48097 21.4288 8.48097 18.8181L0.601562 18.8181C0.601562 25.1997 6.57157 30.3731 13.9359 30.3731Z" fill="#3658A4"/>
<path d="M13.9359 30.373L13.9359 55.373L38.936 55.373L38.9359 30.373L13.9359 30.373ZM13.9359 23.5451L38.9359 23.5451L38.9359 -1.45486L13.9359 -1.45486L13.9359 23.5451ZM8.48097 18.8181L33.481 18.8181L33.481 -6.18187L8.48096 -6.18186L8.48097 18.8181ZM0.601562 18.8181L0.601555 -6.18186L-24.3984 -6.18186L-24.3984 18.8181L0.601562 18.8181ZM38.9359 30.373L38.9359 23.5451L-11.0641 23.5452L-11.0641 30.3731L38.9359 30.373ZM-16.519 18.8181C-16.519 38.4776 0.5979 48.5451 13.9359 48.5451L13.9359 -1.45486C21.2486 -1.45486 33.481 4.37994 33.481 18.8181L-16.519 18.8181ZM0.601569 43.8181L8.48097 43.8181L8.48096 -6.18186L0.601555 -6.18186L0.601569 43.8181ZM13.9359 5.37305C16.0638 5.37305 18.595 6.1161 20.8791 8.09537C23.2143 10.1189 25.6016 13.8429 25.6016 18.8181L-24.3984 18.8181C-24.3984 42.2486 -3.75378 55.373 13.9359 55.373L13.9359 5.37305Z" fill="#3658A4" mask="url(#path-1-inside-1_45_4831)"/>
<path d="M15.1426 17.6667V5.00252C15.1426 5.00252 22.6115 4.77499 25.7995 8.64249C28.3154 11.6947 27.9855 17.6667 27.9855 17.6667H15.1426Z" fill="#764B96"/>
<ellipse cx="7.42857" cy="11.3333" rx="6.42857" ry="6.33333" fill="#E84E41"/>
<rect x="15.1426" y="18.8181" width="12.8571" height="11.5152" fill="#1C9E76"/>
<path d="M28 31.4849H1C1 31.4849 2.25844 37.0402 5.07547 39.5152C8.05093 42.1293 10.6792 43 14.9245 43C19.1698 43 21.4019 41.7579 24.0943 39.5152C27.0433 37.0587 28 31.4849 28 31.4849Z" fill="#5EC1D6"/>
<path d="M62.648 22.4V31.76C61.4747 32.624 60.2213 33.2587 58.888 33.664C57.5653 34.0587 56.1467 34.256 54.632 34.256C52.744 34.256 51.032 33.9627 49.496 33.376C47.9707 32.7893 46.664 31.9733 45.576 30.928C44.4987 29.8827 43.6667 28.6347 43.08 27.184C42.4933 25.7333 42.2 24.1493 42.2 22.432C42.2 20.6933 42.4827 19.0987 43.048 17.648C43.6133 16.1973 44.4133 14.9493 45.448 13.904C46.4933 12.8587 47.7573 12.048 49.24 11.472C50.7227 10.896 52.3867 10.608 54.232 10.608C55.1707 10.608 56.0453 10.6827 56.856 10.832C57.6773 10.9813 58.4347 11.1893 59.128 11.456C59.832 11.712 60.472 12.0267 61.048 12.4C61.624 12.7733 62.152 13.184 62.632 13.632L61.4 15.584C61.208 15.8933 60.9573 16.0853 60.648 16.16C60.3387 16.224 60.0027 16.144 59.64 15.92C59.288 15.7173 58.936 15.5147 58.584 15.312C58.232 15.1093 57.8373 14.9333 57.4 14.784C56.9733 14.6347 56.488 14.512 55.944 14.416C55.4107 14.32 54.792 14.272 54.088 14.272C52.9467 14.272 51.912 14.464 50.984 14.848C50.0667 15.232 49.2827 15.7813 48.632 16.496C47.9813 17.2107 47.48 18.0693 47.128 19.072C46.776 20.0747 46.6 21.1947 46.6 22.432C46.6 23.7547 46.7867 24.9387 47.16 25.984C47.544 27.0187 48.0773 27.8987 48.76 28.624C49.4533 29.3387 50.2853 29.888 51.256 30.272C52.2267 30.6453 53.3093 30.832 54.504 30.832C55.3573 30.832 56.12 30.7413 56.792 30.56C57.464 30.3787 58.12 30.1333 58.76 29.824V25.632H55.848C55.5707 25.632 55.352 25.5573 55.192 25.408C55.0427 25.248 54.968 25.056 54.968 24.832V22.4H62.648ZM68.6488 20.432C69.1608 19.4507 69.7688 18.6827 70.4728 18.128C71.1768 17.5627 72.0088 17.28 72.9688 17.28C73.7261 17.28 74.3341 17.4453 74.7928 17.776L74.5368 20.736C74.4834 20.928 74.4034 21.0667 74.2968 21.152C74.2008 21.2267 74.0674 21.264 73.8968 21.264C73.7368 21.264 73.4968 21.2373 73.1768 21.184C72.8674 21.1307 72.5634 21.104 72.2648 21.104C71.8274 21.104 71.4381 21.168 71.0968 21.296C70.7554 21.424 70.4461 21.6107 70.1688 21.856C69.9021 22.0907 69.6621 22.3787 69.4488 22.72C69.2461 23.0613 69.0541 23.4507 68.8728 23.888V34H64.9208V17.584H67.2408C67.6461 17.584 67.9288 17.6587 68.0888 17.808C68.2488 17.9467 68.3554 18.2027 68.4088 18.576L68.6488 20.432ZM84.3115 26.992C83.1702 27.0453 82.2102 27.1467 81.4315 27.296C80.6528 27.4347 80.0288 27.616 79.5595 27.84C79.0902 28.064 78.7542 28.3253 78.5515 28.624C78.3488 28.9227 78.2475 29.248 78.2475 29.6C78.2475 30.2933 78.4502 30.7893 78.8555 31.088C79.2715 31.3867 79.8102 31.536 80.4715 31.536C81.2822 31.536 81.9808 31.392 82.5675 31.104C83.1648 30.8053 83.7462 30.3573 84.3115 29.76V26.992ZM75.2555 19.872C77.1435 18.144 79.4155 17.28 82.0715 17.28C83.0315 17.28 83.8902 17.44 84.6475 17.76C85.4048 18.0693 86.0448 18.5067 86.5675 19.072C87.0902 19.6267 87.4848 20.2933 87.7515 21.072C88.0288 21.8507 88.1675 22.704 88.1675 23.632V34H86.3755C86.0022 34 85.7142 33.9467 85.5115 33.84C85.3088 33.7227 85.1488 33.4933 85.0315 33.152L84.6795 31.968C84.2635 32.3413 83.8582 32.672 83.4635 32.96C83.0688 33.2373 82.6582 33.472 82.2315 33.664C81.8048 33.856 81.3462 34 80.8555 34.096C80.3755 34.2027 79.8422 34.256 79.2555 34.256C78.5622 34.256 77.9222 34.1653 77.3355 33.984C76.7488 33.792 76.2422 33.5093 75.8155 33.136C75.3888 32.7627 75.0582 32.2987 74.8235 31.744C74.5888 31.1893 74.4715 30.544 74.4715 29.808C74.4715 29.392 74.5408 28.9813 74.6795 28.576C74.8182 28.16 75.0422 27.7653 75.3515 27.392C75.6715 27.0187 76.0822 26.6667 76.5835 26.336C77.0848 26.0053 77.6982 25.7173 78.4235 25.472C79.1595 25.2267 80.0128 25.0293 80.9835 24.88C81.9542 24.72 83.0635 24.624 84.3115 24.592V23.632C84.3115 22.5333 84.0768 21.7227 83.6075 21.2C83.1382 20.6667 82.4608 20.4 81.5755 20.4C80.9355 20.4 80.4022 20.4747 79.9755 20.624C79.5595 20.7733 79.1915 20.944 78.8715 21.136C78.5515 21.3173 78.2582 21.4827 77.9915 21.632C77.7355 21.7813 77.4475 21.856 77.1275 21.856C76.8502 21.856 76.6155 21.7867 76.4235 21.648C76.2315 21.4987 76.0768 21.328 75.9595 21.136L75.2555 19.872ZM106.336 20.544V29.44C106.336 29.952 106.464 30.352 106.72 30.64C106.976 30.928 107.318 31.072 107.744 31.072C107.99 31.072 108.192 31.0453 108.352 30.992C108.523 30.928 108.667 30.864 108.784 30.8C108.912 30.736 109.024 30.6773 109.12 30.624C109.216 30.56 109.312 30.528 109.408 30.528C109.526 30.528 109.622 30.56 109.696 30.624C109.771 30.6773 109.851 30.7627 109.936 30.88L111.12 32.8C110.544 33.28 109.883 33.6427 109.136 33.888C108.4 34.1333 107.632 34.256 106.832 34.256C105.403 34.256 104.304 33.856 103.536 33.056C102.768 32.2453 102.384 31.1307 102.384 29.712V20.544H95.7123V34H91.7603V20.56L90.3363 20.336C90.0269 20.272 89.7763 20.1653 89.5843 20.016C89.4029 19.856 89.3123 19.632 89.3123 19.344V17.728H91.7603V16.512C91.7603 15.5733 91.8989 14.7307 92.1763 13.984C92.4643 13.2373 92.8696 12.6027 93.3923 12.08C93.9256 11.5573 94.5709 11.1573 95.3283 10.88C96.0856 10.6027 96.9389 10.464 97.8883 10.464C98.6456 10.464 99.3496 10.5653 100 10.768L99.9203 12.752C99.9096 12.9013 99.8669 13.024 99.7923 13.12C99.7176 13.2053 99.6163 13.2747 99.4883 13.328C99.3709 13.3707 99.2323 13.4027 99.0723 13.424C98.9123 13.4347 98.7416 13.44 98.5603 13.44C98.0909 13.44 97.6696 13.4933 97.2963 13.6C96.9336 13.696 96.6243 13.872 96.3683 14.128C96.1123 14.3733 95.9149 14.704 95.7763 15.12C95.6483 15.5253 95.5843 16.032 95.5843 16.64V17.728H102.56L103.408 13.232C103.462 13.0187 103.563 12.8533 103.712 12.736C103.862 12.6187 104.054 12.56 104.288 12.56H106.336V17.728H110.72V20.544H106.336ZM122.684 23.904C122.684 23.392 122.61 22.912 122.46 22.464C122.322 22.0053 122.108 21.6053 121.82 21.264C121.532 20.9227 121.164 20.656 120.716 20.464C120.279 20.2613 119.767 20.16 119.18 20.16C118.039 20.16 117.138 20.4853 116.476 21.136C115.826 21.7867 115.41 22.7093 115.228 23.904H122.684ZM115.148 26.288C115.212 27.1307 115.362 27.8613 115.596 28.48C115.831 29.088 116.14 29.5947 116.524 30C116.908 30.3947 117.362 30.6933 117.884 30.896C118.418 31.088 119.004 31.184 119.644 31.184C120.284 31.184 120.834 31.1093 121.292 30.96C121.762 30.8107 122.167 30.6453 122.508 30.464C122.86 30.2827 123.164 30.1173 123.42 29.968C123.687 29.8187 123.943 29.744 124.188 29.744C124.519 29.744 124.764 29.8667 124.924 30.112L126.06 31.552C125.623 32.064 125.132 32.496 124.588 32.848C124.044 33.1893 123.474 33.4667 122.876 33.68C122.29 33.8827 121.687 34.0267 121.068 34.112C120.46 34.1973 119.868 34.24 119.292 34.24C118.151 34.24 117.09 34.0533 116.108 33.68C115.127 33.296 114.274 32.736 113.548 32C112.823 31.2533 112.252 30.336 111.836 29.248C111.42 28.1493 111.212 26.88 111.212 25.44C111.212 24.32 111.394 23.2693 111.756 22.288C112.119 21.296 112.636 20.4373 113.308 19.712C113.991 18.976 114.818 18.3947 115.788 17.968C116.77 17.5413 117.874 17.328 119.1 17.328C120.135 17.328 121.09 17.4933 121.964 17.824C122.839 18.1547 123.591 18.64 124.22 19.28C124.85 19.9093 125.34 20.688 125.692 21.616C126.055 22.5333 126.236 23.584 126.236 24.768C126.236 25.3653 126.172 25.7707 126.044 25.984C125.916 26.1867 125.671 26.288 125.308 26.288H115.148ZM131.93 20.432C132.442 19.4507 133.05 18.6827 133.754 18.128C134.458 17.5627 135.29 17.28 136.25 17.28C137.007 17.28 137.615 17.4453 138.074 17.776L137.818 20.736C137.765 20.928 137.685 21.0667 137.578 21.152C137.482 21.2267 137.349 21.264 137.178 21.264C137.018 21.264 136.778 21.2373 136.458 21.184C136.149 21.1307 135.845 21.104 135.546 21.104C135.109 21.104 134.719 21.168 134.378 21.296C134.037 21.424 133.727 21.6107 133.45 21.856C133.183 22.0907 132.943 22.3787 132.73 22.72C132.527 23.0613 132.335 23.4507 132.154 23.888V34H128.202V17.584H130.522C130.927 17.584 131.21 17.6587 131.37 17.808C131.53 17.9467 131.637 18.2027 131.69 18.576L131.93 20.432ZM142.868 20.432C143.38 19.4507 143.988 18.6827 144.692 18.128C145.396 17.5627 146.228 17.28 147.188 17.28C147.945 17.28 148.553 17.4453 149.012 17.776L148.756 20.736C148.702 20.928 148.622 21.0667 148.516 21.152C148.42 21.2267 148.286 21.264 148.116 21.264C147.956 21.264 147.716 21.2373 147.396 21.184C147.086 21.1307 146.782 21.104 146.484 21.104C146.046 21.104 145.657 21.168 145.316 21.296C144.974 21.424 144.665 21.6107 144.388 21.856C144.121 22.0907 143.881 22.3787 143.668 22.72C143.465 23.0613 143.273 23.4507 143.092 23.888V34H139.14V17.584H141.46C141.865 17.584 142.148 17.6587 142.308 17.808C142.468 17.9467 142.574 18.2027 142.628 18.576L142.868 20.432Z" fill="white"/>
</svg>
